<?xml version="1.0" encoding="iso-8859-1"?>
<!-- Generator: Adobe Illustrator 19.0.0, SVG Export Plug-In . SVG Version: 6.00 Build 0)  -->
<svg version="1.1" id="Capa_1" xmlns="http://www.w3.org/2000/svg" xmlns:xlink="http://www.w3.org/1999/xlink" x="0px" y="0px"
	 viewBox="0 0 512.002 512.002" style="enable-background:new 0 0 512.002 512.002;" xml:space="preserve">
<path style="fill:#DEE2E5;" d="M163.866,291.363l-70.552,52.778c-3.151,2.357-7.617,1.714-9.974-1.437l-66.87-89.391
	c-2.357-3.151-1.714-7.617,1.438-9.974l70.552-52.778c3.151-2.357,7.617-1.714,9.974,1.438l66.87,89.391
	C167.661,284.541,167.018,289.006,163.866,291.363z"/>
<path style="fill:#8783D2;" d="M116.916,267.789l-32.959,24.655c-3.151,2.357-7.617,1.714-9.974-1.438l-24.655-32.959
	c-2.357-3.151-1.714-7.617,1.438-9.974l32.959-24.655c3.151-2.357,7.617-1.714,9.974,1.438l24.655,32.959
	C120.711,260.967,120.067,265.432,116.916,267.789z"/>
<path style="fill:#DEE2E5;" d="M452.144,463.206l-83.557-27.953c-3.732-1.248-5.745-5.286-4.497-9.018l35.417-105.868
	c1.249-3.732,5.286-5.745,9.018-4.497l83.557,27.953c3.732,1.249,5.745,5.286,4.497,9.018l-35.417,105.868
	C459.914,462.441,455.876,464.454,452.144,463.206z"/>
<path style="fill:#FFA8CB;" d="M444.794,411.186l-39.034-13.059c-3.732-1.249-5.745-5.286-4.497-9.018l13.059-39.034
	c1.249-3.732,5.286-5.745,9.018-4.497l39.034,13.058c3.732,1.249,5.745,5.286,4.497,9.018l-13.058,39.034
	C452.563,410.421,448.526,412.435,444.794,411.186z"/>
<path style="fill:#498A68;" d="M367.861,410.087c-5.956,0.42-11.812-2.847-14.409-8.609c-3.373-7.478-10.776-12.353-14.334-14.696
	c-0.532-0.35-0.99-0.654-1.362-0.909c-6.682-4.583-8.385-13.715-3.801-20.399c4.581-6.682,13.714-8.388,20.399-3.801
	c0.247,0.169,0.552,0.369,0.905,0.601c4.942,3.255,18.071,11.902,24.944,27.14c3.331,7.387,0.043,16.076-7.344,19.407
	C371.232,409.556,369.543,409.969,367.861,410.087z"/>
<path style="fill:#5CB38E;" d="M239.956,437.711c-68.471,0-147.269,0-204.956-36.829c-9.871-6.302-4.162-21.523,7.446-19.974
	c45.682,6.099,84.054-5.53,105.935-24.366L239.956,437.711z"/>
<path style="opacity:0.1;enable-background:new    ;" d="M122.553,372.081c0.763,21.867,4.12,43.694,17.599,61.843
	c33.379,3.787,67.725,3.788,99.804,3.788l-91.574-81.169C141.368,362.579,132.653,367.87,122.553,372.081z"/>
<g>
	<path style="fill:#498A68;" d="M209.302,504.502c-0.581,0-1.166-0.022-1.755-0.067c-12.43-0.957-21.732-11.808-20.775-24.239
		c0.867-11.28-0.062-48.904-1.681-57.234c-3.715-11.184,1.84-23.487,12.912-27.998c11.548-4.705,24.719,0.842,29.422,12.387
		c6.086,14.938,4.637,72.695,4.359,76.309C230.874,495.499,220.982,504.501,209.302,504.502z M185.606,424.359
		c0.003,0.009,0.007,0.018,0.01,0.026C185.613,424.377,185.609,424.368,185.606,424.359z"/>
	<path style="fill:#498A68;" d="M291.168,504.502c-0.582,0-1.167-0.022-1.756-0.067c-12.431-0.957-21.731-11.809-20.776-24.239
		c0.869-11.279-0.062-48.897-1.681-57.233c-3.716-11.184,1.839-23.486,12.911-28c11.541-4.704,24.717,0.84,29.424,12.386
		c6.089,14.94,4.638,72.697,4.36,76.31C312.739,495.5,302.848,504.502,291.168,504.502z M267.472,424.361
		c0.003,0.009,0.007,0.016,0.01,0.025C267.478,424.378,267.475,424.37,267.472,424.361z"/>
</g>
<path style="opacity:0.1;enable-background:new    ;" d="M314,462.74c-0.018-19.188-0.845-45.909-4.709-55.391
	c-4.706-11.546-17.882-17.09-29.424-12.386c-11.073,4.514-16.627,16.815-12.911,28c1.298,6.684,2.153,32.187,1.993,47.85
	C286.376,469.668,301.309,467.004,314,462.74z"/>
<path style="opacity:0.1;enable-background:new    ;" d="M198.003,394.963c-11.073,4.511-16.627,16.814-12.912,27.998
	c1.131,5.822,1.925,25.946,2.005,41.392c12.807,3.704,27.735,5.925,44.996,6.747c0.209-18.76-0.199-52.787-4.666-63.75
	C222.721,395.805,209.551,390.258,198.003,394.963z"/>
<path style="fill:#5CB38E;" d="M351.036,358.067c0,52.699-7.158,90.831-103.06,90.831s-103.06-38.132-103.06-90.831
	s46.141-95.42,103.06-95.42C304.894,262.647,351.036,305.368,351.036,358.067z"/>
<path style="fill:#9BDFC1;" d="M351.036,358.067c0-0.42-0.011-0.837-0.017-1.256c-21.466-5.509-64.044-7.111-93.673,24.377
	c-21.591,22.946-24.716,47.707-22.4,67.455c4.151,0.169,8.49,0.255,13.03,0.255C343.877,448.897,351.036,410.765,351.036,358.067z"
	/>
<path style="opacity:0.05;enable-background:new    ;" d="M228.41,264.371c-47.561,8.464-83.495,47.191-83.495,93.695
	c0,48.797,6.149,85.099,83.194,90.208C185.332,404.856,193.606,315.206,228.41,264.371z"/>
<path style="fill:#5CB38E;" d="M342.574,125.224L342.574,125.224c-17.599-26.613-47.376-42.621-79.282-42.621h-39.22
	c-55.76,0-100.962,45.202-100.962,100.962v46.419c0,50.044,40.568,90.612,90.612,90.612h207.905c37.489,0,67.88-30.391,67.88-67.88
	v-31.592c0-37.489-30.391-67.88-67.88-67.88h-26.933C373.72,153.244,354.144,142.72,342.574,125.224z"/>
<g style="opacity:0.1;">
	<circle cx="177.95" cy="252.05" r="6.948"/>
	<circle cx="227.35" cy="262.65" r="6.948"/>
	<circle cx="199.08" cy="286.35" r="6.948"/>
</g>
<g>
	<ellipse style="fill:#FFA8CB;" cx="188.52" cy="157.02" rx="17.513" ry="8.984"/>
	<ellipse style="fill:#FFA8CB;" cx="306.09" cy="157.02" rx="17.513" ry="8.984"/>
</g>
<path style="opacity:0.05;enable-background:new    ;" d="M201.643,85.107c-44.964,10.2-78.532,50.407-78.532,98.457v46.419
	c0,50.044,40.568,90.612,90.612,90.612h54.984C188.631,274.004,175.058,145.932,201.643,85.107z"/>
<path style="fill:#495059;" d="M348.007,415.868h-62.726c-5.046,0-9.136-4.09-9.136-9.136v-34.201c0-5.046,4.09-9.136,9.136-9.136
	h62.726c5.046,0,9.136,4.09,9.136,9.136v34.201C357.143,411.777,353.052,415.868,348.007,415.868z"/>
<path style="fill:#498A68;" d="M266.781,412.167c-10.72,0-22.77-3.288-35.015-9.576c-7.209-3.701-10.053-12.545-6.352-19.754
	c3.702-7.207,12.545-10.055,19.754-6.351c8.448,4.336,16.472,6.592,22.545,6.316c8.122-0.346,14.944,5.93,15.294,14.025
	c0.351,8.096-5.929,14.944-14.024,15.294C268.255,412.151,267.52,412.167,266.781,412.167z"/>
<path style="fill:#FFFFFF;" d="M325.541,339.852h-17.795c-3.947,0-7.147,3.2-7.147,7.147v16.396h32.089v-16.396
	C332.688,343.052,329.488,339.852,325.541,339.852z"/>
<circle style="fill:#959BA0;" cx="321.16" cy="389.63" r="17.448"/>
<circle style="fill:#495059;" cx="321.16" cy="389.63" r="6.17"/>
<g>
	<path style="fill:#DEE2E5;" d="M337.742,104.582L126.765,123.04c-6.192,0.542-9.871-6.756-5.753-11.411l25.061-28.332
		l165.753-14.502l29.6,23.55C346.29,96.215,343.935,104.04,337.742,104.582z"/>
	<path style="fill:#DEE2E5;" d="M281.28,7.599L165.528,17.726c-13.808,1.208-24.021,13.38-22.813,27.188l3.358,38.383
		l165.753-14.502l-3.358-38.383C307.26,16.605,295.087,6.391,281.28,7.599z"/>
</g>
<rect x="144.373" y="44.278" transform="matrix(-0.9962 0.0872 -0.0872 -0.9962 459.5186 100.2953)" style="fill:#CD5B5B;" width="166.392" height="31.813"/>
<path d="M502.91,344.054c-1.743-3.496-4.743-6.104-8.447-7.343l-43.508-14.555c27.038-11.462,46.053-38.273,46.053-69.441v-31.592
	c0-41.564-33.815-75.38-75.38-75.38h-26.933c-18.51,0-35.656-9.218-45.865-24.656c-2.229-3.37-4.664-6.592-7.269-9.669
	c4.444-1.421,7.961-4.928,9.351-9.545c1.706-5.668-0.185-11.712-4.817-15.397l-27.079-21.543l-2.491-28.473c0-0.003,0-0.006,0-0.009
	s-0.001-0.006-0.001-0.009l-0.585-6.683c-0.759-8.674-4.85-16.533-11.52-22.13c-6.67-5.596-15.117-8.262-23.793-7.502
	L164.874,10.254c-17.905,1.566-31.197,17.408-29.631,35.313l3.077,35.173l-22.926,25.919c-3.922,4.434-4.735,10.714-2.071,16
	c2.471,4.902,7.407,7.909,12.814,7.908c0.424,0,0.851-0.019,1.28-0.056l2.145-0.188c-9.154,16.154-13.952,34.283-13.952,53.24
	v18.875l-11.172-14.935c-4.829-6.455-14.013-7.779-20.472-2.95l-70.552,52.778c-3.128,2.341-5.158,5.759-5.715,9.625
	s0.425,7.719,2.765,10.847l66.87,89.391c2.34,3.128,5.758,5.158,9.625,5.716c0.708,0.102,1.414,0.152,2.117,0.152
	c3.135,0,6.175-1.006,8.73-2.917l51.492-38.519c-7.384,13.567-11.426,28.484-11.832,43.868
	c-23.01,16.097-57.811,22.808-94.028,17.979c-8.823-1.178-16.793,3.637-19.844,11.979c-3.021,8.266-0.061,17.007,7.369,21.75
	c45.15,28.825,101.113,34.989,145.231,37.003c0.983,0.474,1.983,0.937,3.009,1.383c0.489,13.6,0.542,28.138,0.089,34.033
	c-0.616,8.009,1.923,15.779,7.151,21.878c5.228,6.1,12.518,9.798,20.52,10.413c0.768,0.06,1.554,0.09,2.338,0.09
	c15.603-0.001,28.763-12.198,29.959-27.765c0.14-1.817,0.487-13.699,0.335-27.941c2.73,0.066,5.521,0.101,8.379,0.101
	c4.627,0,9.081-0.095,13.384-0.274c0.195,10.153,0.129,19.238-0.199,23.498c-0.616,8.009,1.923,15.778,7.15,21.878
	c5.228,6.1,12.518,9.798,20.52,10.413c0.767,0.06,1.554,0.09,2.339,0.09c15.603,0,28.762-12.197,29.96-27.768
	c0.214-2.771,0.68-22.21,0.056-40.837c10.077-5.105,17.878-11.76,23.606-20.03h3.216c3.912,0,7.507-1.366,10.35-3.634l-1.38,4.124
	c-2.557,7.647,1.584,15.95,9.232,18.509l83.556,27.952c1.534,0.514,3.094,0.757,4.629,0.757c6.118,0,11.836-3.872,13.882-9.985
	l35.417-105.869C504.931,351.516,504.654,347.55,502.91,344.054z M166.182,25.197L281.933,15.07
	c9.412-0.825,17.73,5.953,18.955,15.219l-18.677,1.634c-4.127,0.361-7.179,3.999-6.818,8.125c0.342,3.904,3.616,6.847,7.463,6.847
	c0.219,0,0.441-0.009,0.662-0.028l18.717-1.637l1.466,16.749l-150.81,13.193l-1.465-16.748L248.86,49.9
	c4.126-0.361,7.179-3.999,6.818-8.125c-0.361-4.126-3.998-7.182-8.126-6.818l-97.395,8.521
	C149.757,34.138,156.78,26.02,166.182,25.197z M127.66,115.433l22.048-24.926l159.791-13.979l26.042,20.719L127.66,115.433z
	 M89.122,337.91L22.7,249.12l69.953-52.33l22.958,30.691v2.501c0,26.252,10.365,50.128,27.216,67.753L89.122,337.91z
	 M130.611,229.983v-46.418c0-19.966,6.159-38.872,17.826-54.892l59.716-5.224c-2.868,1.053-4.918,3.8-4.918,7.034v8.726
	c0,4.143,3.358,7.5,7.5,7.5s7.5-3.357,7.5-7.5v-8.726c0-3.689-2.665-6.749-6.174-7.376l110.715-9.686
	c5.136,4.755,9.684,10.105,13.543,15.94c12.994,19.651,34.817,31.383,58.377,31.383h26.933c33.294,0,60.38,27.086,60.38,60.38
	v31.592c0,33.294-27.086,60.38-60.38,60.38h-22.027c-0.015,0-0.03,0-0.046,0H255.847c-4.142,0-7.5,3.357-7.5,7.5s3.358,7.5,7.5,7.5
	h81.985c3.519,8.909,5.424,18.232,5.674,27.801h-3.319v-8.896c0-8.076-6.57-14.648-14.646-14.648h-17.795
	c-8.076,0-14.648,6.571-14.648,14.648v8.896h-7.818c-3.641,0-7.003,1.19-9.745,3.182c-27.171-10.188-50.174-21.042-68.191-31.196
	c2.11,0.136,4.235,0.213,6.379,0.213h6.073c4.142,0,7.5-3.357,7.5-7.5s-3.358-7.5-7.5-7.5h-6.073
	C167.895,313.095,130.611,275.811,130.611,229.983z M325.188,347.352v8.544h-17.089v-8.544H325.188z M39.037,394.561
	c-1.875-1.197-1.771-2.813-1.353-3.957c0.29-0.792,1.232-2.602,3.771-2.262c35.769,4.778,70.616-0.924,96.224-15.304
	c0.838,20.105,4.207,39.776,16.859,54.783C116.838,424.714,74.051,416.915,39.037,394.561z M224.306,483.084
	c-0.6,7.804-7.19,13.917-15.004,13.918c-0.397,0-0.792-0.015-1.18-0.045c-4.015-0.31-7.669-2.163-10.289-5.22
	s-3.893-6.951-3.584-10.966c0.469-6.106,0.433-18.46,0.122-30.029c8.864,2.317,18.905,3.908,30.215,4.796
	C224.763,469.993,224.398,481.853,224.306,483.084z M306.173,483.084c-0.601,7.805-7.191,13.918-15.005,13.918
	c-0.397,0-0.792-0.015-1.181-0.045c-4.015-0.31-7.668-2.163-10.288-5.22s-3.894-6.951-3.585-10.965
	c0.42-5.445,0.423-15.888,0.225-25.704c11.278-1.152,21.255-3.065,30.007-5.763C306.729,465.997,306.302,481.354,306.173,483.084z
	 M247.976,441.398c-5.367,0-10.469-0.118-15.318-0.355c-0.161-0.016-0.323-0.021-0.486-0.027
	c-17.242-0.874-31.236-3.274-42.342-7.294c-0.465-0.232-0.957-0.416-1.469-0.547c-2.217-0.851-4.314-1.77-6.293-2.757
	c-0.343-0.214-0.706-0.396-1.084-0.553c-6.031-3.155-10.938-6.975-14.799-11.494c-8.5-9.945-13.768-23.503-13.768-60.305
	c0-14.628,3.909-28.832,11.347-41.556c23.96,20.989,68.897,42.321,104.883,55.995c0,0.009-0.001,0.017-0.001,0.026v2.763
	c-0.422-0.006-0.846-0.003-1.272,0.015c-4.731,0.225-11.559-1.789-18.777-5.495c-1.497-0.77-3.077-1.367-4.697-1.777
	c-4.018-1.016-8.095,1.414-9.112,5.43c-1.017,4.015,1.414,8.095,5.429,9.111c0.523,0.133,1.036,0.327,1.527,0.579
	c6.803,3.493,16.894,7.558,26.291,7.138c1.469-0.072,2.853,0.31,4.022,1.019c0.024,0.016,0.05,0.03,0.074,0.045
	c1.945,1.212,3.279,3.338,3.384,5.792c0.083,1.914-0.584,3.746-1.88,5.158c-0.321,0.35-0.671,0.663-1.044,0.938
	c-0.139,0.088-0.277,0.176-0.409,0.272c-1.047,0.665-2.25,1.054-3.521,1.109c-9.996,0.42-21.587-2.606-33.467-8.707
	c-0.815-0.419-1.527-0.973-2.117-1.646c-2.729-3.114-7.468-3.427-10.583-0.695c-3.115,2.73-3.426,7.469-0.696,10.584
	c1.839,2.098,4.04,3.813,6.543,5.1c13.254,6.806,26.547,10.403,38.441,10.403c0.848,0,1.69-0.017,2.526-0.053
	c1.59-0.069,3.142-0.316,4.647-0.706c3.005,2.799,7.008,4.46,11.327,4.46h39.476C313.515,432.844,292.226,441.398,247.976,441.398z
	 M349.643,406.732c0,0.902-0.734,1.636-1.637,1.636h-60.37c2.032-3.578,3.046-7.652,2.864-11.865
	c-0.258-5.948-2.851-11.251-6.855-15.068v-8.902c0-0.902,0.733-1.636,1.636-1.636h62.726c0.146,0,0.285,0.025,0.419,0.061
	c0.096,0.035,0.19,0.075,0.288,0.106c0.548,0.265,0.93,0.821,0.93,1.469v34.199H349.643z M359.386,356.013l-0.184-0.121
	c-0.233-0.153-0.439-0.288-0.607-0.404c-0.031-0.021-0.064-0.04-0.095-0.061c-0.251-9.35-1.841-18.496-4.732-27.332h35.246
	l-13.702,40.96C369.016,362.375,362.613,358.138,359.386,356.013z M367.333,402.606c-0.911,0.064-1.826-0.058-2.69-0.337v-22.647
	c3.269,3.51,6.426,7.786,8.723,12.877c0.787,1.746,0.848,3.695,0.17,5.487c-0.679,1.792-2.014,3.213-3.761,4
	C368.994,402.338,368.173,402.547,367.333,402.606z M454.169,455.974l-82.848-27.715l4.153-12.413
	c0.155-0.066,0.314-0.117,0.467-0.187c5.398-2.435,9.526-6.826,11.623-12.365c2.096-5.539,1.909-11.564-0.525-16.963
	c-0.318-0.705-0.664-1.377-1.003-2.057l18.794-56.179h16.598l67.92,22.723L454.169,455.974z M386.053,195.648
	c3.837,0,6.948-3.111,6.948-6.948s-3.111-6.948-6.948-6.948s-6.948,3.111-6.948,6.948S382.216,195.648,386.053,195.648z
	 M430.335,195.648c3.837,0,6.948-3.111,6.948-6.948s-3.111-6.948-6.948-6.948s-6.948,3.111-6.948,6.948
	S426.497,195.648,430.335,195.648z M283.875,146.709c4.143,0,7.5-3.357,7.5-7.5v-8.726c0-4.143-3.357-7.5-7.5-7.5
	s-7.5,3.357-7.5,7.5v8.726C276.375,143.352,279.733,146.709,283.875,146.709z M388.679,269.121
	c4.922,5.648,12.035,8.887,19.515,8.887c7.48,0,14.592-3.239,19.515-8.886c2.722-3.123,2.397-7.86-0.725-10.582
	c-3.124-2.723-7.861-2.397-10.582,0.725c-2.073,2.379-5.065,3.743-8.208,3.743c-3.142,0-6.134-1.364-8.206-3.742
	c-2.723-3.122-7.46-3.447-10.582-0.727C386.284,261.261,385.957,265.998,388.679,269.121z"/>
<g>
</g>
<g>
</g>
<g>
</g>
<g>
</g>
<g>
</g>
<g>
</g>
<g>
</g>
<g>
</g>
<g>
</g>
<g>
</g>
<g>
</g>
<g>
</g>
<g>
</g>
<g>
</g>
<g>
</g>
</svg>
