<svg height="496pt" viewBox="-24 0 496 496" width="496pt" xmlns="http://www.w3.org/2000/svg"><path d="m360 40v144h-8c-4.398438 0-8 3.601562-8 8v24h-114.71875c-8.480469 0-16.640625 3.359375-22.640625 9.359375l-22.640625 22.640625h-16v-24c0-4.398438-3.601562-8-8-8h-32c-4.398438 0-8 3.601562-8 8v24h-32v-208zm0 0" fill="#e6e9ed"/><path d="m392 24v160h-32v-144h-272v184c0-4.398438-3.601562-8-8-8h-24v-192c0-8.800781 7.199219-16 16-16h304c8.800781 0 16 7.199219 16 16zm0 0" fill="#fcd770"/><g fill="#838f9b"><path d="m360 184h40c4.398438 0 8 3.601562 8 8v24h-64v-24c0-4.398438 3.601562-8 8-8zm0 0"/><path d="m168 224v24h-48v-24c0-4.398438 3.601562-8 8-8h32c4.398438 0 8 3.601562 8 8zm0 0"/><path d="m88 232v16h-48v-24c0-4.398438 3.601562-8 8-8h32c4.398438 0 8 3.601562 8 8zm0 0"/></g><path d="m440 248v32h-102.320312c-16.878907-10.160156-36.640626-16-57.679688-16s-40.800781 5.839844-57.679688 16h-214.320312c0-17.679688 14.320312-32 32-32h144l22.640625-22.640625c6-6 14.160156-9.359375 22.640625-9.359375h178.71875c17.679688 0 32 14.320312 32 32zm0 0" fill="#ef7385"/><path d="m120 312v8l-46.960938 10.398438c-14.640624 3.28125-25.039062 16.242187-25.039062 31.28125v126.320312h-8c-17.679688 0-32-14.320312-32-32v-176h80c17.679688 0 32 14.320312 32 32zm0 0" fill="#969faa"/><path d="m440 280v176c0 17.679688-14.320312 32-32 32h-128c61.839844 0 112-50.160156 112-112 0-40.71875-21.761719-76.398438-54.320312-96zm0 0" fill="#969faa"/><path d="m222.320312 280c16.878907-10.160156 36.640626-16 57.679688-16s40.800781 5.839844 57.679688 16c32.558593 19.601562 54.320312 55.28125 54.320312 96 0 61.839844-50.160156 112-112 112-34.558594 0-65.441406-15.679688-86-40.320312-9.519531-11.441407-16.878906-24.71875-21.199219-39.359376-3.121093-10.242187-4.800781-21.121093-4.800781-32.320312 0-40.71875 21.761719-76.398438 54.320312-96zm0 0" fill="#69d6f4"/><path d="m280 304c39.761719 0 72 32.238281 72 72s-32.238281 72-72 72-72-32.238281-72-72 32.238281-72 72-72zm0 0" fill="#3bafda"/><path d="m304 376c0 13.253906-10.746094 24-24 24s-24-10.746094-24-24 10.746094-24 24-24 24 10.746094 24 24zm0 0" fill="#4fc1e9"/><path d="m280 488h-192c17.679688 0 32-14.320312 32-32v-144c0-17.679688-14.320312-32-32-32h134.320312c-32.558593 19.601562-54.320312 55.28125-54.320312 96 0 11.199219 1.679688 22.078125 4.800781 32.320312-11.761719 1.601563-20.800781 11.519532-20.800781 23.679688 0 13.28125 10.71875 24 24 24 7.199219 0 13.601562-3.28125 18-8.320312 20.558594 24.640624 51.441406 40.320312 86 40.320312zm0 0" fill="#969faa"/><path d="m194 447.679688c-4.398438 5.039062-10.800781 8.320312-18 8.320312-13.28125 0-24-10.71875-24-24 0-12.160156 9.039062-22.078125 20.800781-23.679688 4.320313 14.640626 11.679688 27.917969 21.199219 39.359376zm0 0" fill="#656d78"/><path d="m120 320v136c0 17.679688-14.320312 32-32 32h-40v-126.320312c0-15.039063 10.398438-28 25.039062-31.28125zm0 0" fill="#656d78"/><path d="m416 208.808594v-16.808594c0-8.824219-7.175781-16-16-16v-152c0-13.230469-10.769531-24-24-24h-304c-13.230469 0-24 10.769531-24 24v184c-8.824219 0-16 7.175781-16 16v16.808594c-18.230469 3.71875-32 19.878906-32 39.191406v176c0 22.054688 17.945312 40 40 40h368c22.054688 0 40-17.945312 40-40v-208c0-19.3125-13.769531-35.472656-32-39.191406zm-256 31.191406h-32v-16h32zm0-32h-32c-8.824219 0-16 7.175781-16 16v16h-16v-192h256v128c-8.824219 0-16 7.175781-16 16v16h-106.742188c-10.683593 0-20.730468 4.160156-28.28125 11.710938l-20.289062 20.289062h-4.6875v-16c0-8.824219-7.175781-16-16-16zm192-16h48v16h-48zm-288-168c0-4.40625 3.59375-8 8-8h304c4.40625 0 8 3.59375 8 8v152h-16v-144h-288v176h-16zm16 200v16h-32v-16zm-40 32h147.3125l24.976562-24.976562c4.464844-4.464844 10.648438-7.023438 16.96875-7.023438h178.742188c13.230469 0 24 10.769531 24 24v24h-92.390625c-17.585937-10.121094-37.90625-16-59.609375-16s-42.023438 5.878906-59.609375 16h-202.917969c3.3125-9.289062 12.113282-16 22.527344-16zm127.871094 162.375c3.800781 10.023438 8.890625 19.402344 15.097656 27.9375-2.152344 1.078125-4.496094 1.6875-6.96875 1.6875-8.824219 0-16-7.175781-16-16 0-5.726562 3.152344-10.824219 7.871094-13.625zm8.128906-42.375c0-57.34375 46.65625-104 104-104s104 46.65625 104 104-46.65625 104-104 104-104-46.65625-104-104zm-120 104h-16c-13.230469 0-24-10.769531-24-24v-168h72c13.230469 0 24 10.769531 24 24v1.585938l-40.671875 9.039062c-18.449219 4.09375-31.328125 20.152344-31.328125 39.039062v102.335938h16v-102.335938c0-11.335937 7.726562-20.96875 18.792969-23.433593l37.207031-8.261719v126.03125c0 13.230469-10.769531 24-24 24zm63.792969 0c5.078125-6.703125 8.207031-14.960938 8.207031-24v-144c0-9.039062-3.128906-17.296875-8.207031-24h78.894531c-23.71875 21.9375-38.6875 53.214844-38.6875 88 0 9.273438 1.160156 18.265625 3.160156 26.945312-11.320312 5-19.160156 16.222657-19.160156 29.054688 0 17.648438 14.351562 32 32 32 6.183594 0 12.121094-1.96875 17.246094-5.320312 7.960937 8.34375 17.082031 15.527343 27.136718 21.320312zm288.207031 0h-68.390625c36.023437-20.726562 60.390625-59.535156 60.390625-104 0-34.785156-14.96875-66.0625-38.695312-88h70.695312v168c0 13.230469-10.769531 24-24 24zm0 0"/><path d="m280 408c17.648438 0 32-14.351562 32-32s-14.351562-32-32-32-32 14.351562-32 32 14.351562 32 32 32zm0-48c8.824219 0 16 7.175781 16 16s-7.175781 16-16 16-16-7.175781-16-16 7.175781-16 16-16zm0 0"/><path d="m280 456c44.113281 0 80-35.886719 80-80s-35.886719-80-80-80-80 35.886719-80 80 35.886719 80 80 80zm0-144c35.289062 0 64 28.710938 64 64s-28.710938 64-64 64-64-28.710938-64-64 28.710938-64 64-64zm0 0"/><path d="m400 448h16v16h-16zm0 0"/><path d="m208 240h16v16h-16zm0 0"/><path d="m384 240h32v16h-32zm0 0"/><path d="m336 240h32v16h-32zm0 0"/><path d="m240 240h16v16h-16zm0 0"/></svg>