<?xml version="1.0" encoding="iso-8859-1"?>
<!-- Generator: Adobe Illustrator 19.0.0, SVG Export Plug-In . SVG Version: 6.00 Build 0)  -->
<svg version="1.1" id="Capa_1" xmlns="http://www.w3.org/2000/svg" xmlns:xlink="http://www.w3.org/1999/xlink" x="0px" y="0px"
	 viewBox="0 0 512 512" style="enable-background:new 0 0 512 512;" xml:space="preserve">
<path style="fill:#498A68;" d="M186.058,373.389c-2.235,0-4.503-0.534-6.612-1.661c-6.847-3.658-9.431-12.175-5.773-19.022
	c7.582-14.188,19.048-23.265,22.816-26.248l0.31-0.245c6.08-4.828,14.921-3.816,19.75,2.263c4.829,6.079,3.815,14.921-2.264,19.749
	l-0.346,0.275c-2.912,2.305-10.647,8.428-15.471,17.455C195.937,370.693,191.078,373.389,186.058,373.389z"/>
<path style="fill:#5CB38E;" d="M303.287,399.146c65.596,0,141.085,0,196.349-35.283c9.457-6.038,3.987-20.619-7.134-19.135
	c-43.764,5.843-80.524-5.298-101.486-23.343L303.287,399.146z"/>
<path style="opacity:0.1;enable-background:new    ;" d="M415.761,336.272c-0.731,20.948-3.947,41.859-16.86,59.246
	c-31.978,3.628-64.881,3.628-95.612,3.628l87.728-77.76C397.736,327.17,406.084,332.238,415.761,336.272z"/>
<g>
	<path style="fill:#498A68;" d="M332.655,463.132c-11.19,0.001-20.665-8.623-21.539-19.967c-0.266-3.461-1.656-58.793,4.177-73.107
		c4.509-11.061,17.131-16.371,28.188-11.864c10.608,4.322,15.929,16.109,12.369,26.823c-1.551,7.985-2.442,44.024-1.61,54.828
		c0.916,11.908-7.994,22.305-19.903,23.221C333.773,463.111,333.211,463.132,332.655,463.132z M355.356,386.356
		c-0.003,0.009-0.006,0.017-0.009,0.025C355.35,386.373,355.353,386.365,355.356,386.356z M355.928,384.643L355.928,384.643
		L355.928,384.643z"/>
	<path style="fill:#498A68;" d="M254.226,463.132c-11.191,0.001-20.666-8.624-21.539-19.969c-0.266-3.461-1.652-58.798,4.177-73.105
		c4.509-11.061,17.13-16.371,28.188-11.864c10.607,4.322,15.929,16.109,12.369,26.823c-1.55,7.982-2.441,44.022-1.61,54.83
		c0.915,11.908-7.996,22.304-19.904,23.219C255.343,463.111,254.781,463.132,254.226,463.132z M276.927,386.358
		c-0.004,0.009-0.006,0.016-0.009,0.024C276.92,386.373,276.923,386.366,276.927,386.358z M277.499,384.642c0,0.001,0,0.001,0,0.001
		C277.499,384.643,277.499,384.643,277.499,384.642z"/>
</g>
<path style="opacity:0.1;enable-background:new    ;" d="M343.481,358.194c-11.056-4.507-23.679,0.803-28.188,11.864
	c-4.281,10.505-4.672,43.102-4.472,61.074c16.536-0.788,30.838-2.915,43.107-6.464c0.077-14.795,0.837-34.071,1.921-39.652
	C359.409,374.303,354.088,362.517,343.481,358.194z"/>
<path style="opacity:0.1;enable-background:new    ;" d="M265.052,358.194c-11.057-4.507-23.679,0.803-28.188,11.864
	c-3.699,9.08-4.493,34.682-4.511,53.065c12.158,4.085,26.464,6.638,43.159,7.734c-0.153-15.007,0.666-39.44,1.908-45.839
	C280.981,374.302,275.66,362.517,265.052,358.194z"/>
<path style="fill:#5CB38E;" d="M196.873,322.846c0,50.486,6.858,87.017,98.732,87.017s98.733-36.531,98.733-87.017
	s-44.204-91.413-98.733-91.413S196.873,272.36,196.873,322.846z"/>
<path style="fill:#9BDFC1;" d="M196.873,322.846c0-0.402,0.011-0.802,0.016-1.203c20.564-5.278,61.354-6.812,89.74,23.354
	c20.684,21.983,23.678,45.703,21.458,64.623c-3.976,0.161-8.133,0.244-12.482,0.244C203.73,409.863,196.873,373.332,196.873,322.846
	z"/>
<path style="opacity:0.05;enable-background:new    ;" d="M314.348,233.086c45.563,8.108,79.988,45.209,79.988,89.76
	c0,46.747-5.891,81.525-79.7,86.42C355.618,367.671,347.692,281.786,314.348,233.086z"/>
<path style="fill:#5CB38E;" d="M204.979,99.781L204.979,99.781c16.86-25.496,45.386-40.832,75.952-40.832h37.573
	c53.418,0,96.722,43.304,96.722,96.722v44.469c0,47.943-38.865,86.807-86.807,86.807H129.244c-35.914,0-65.03-29.114-65.03-65.029
	v-30.266c0-35.914,29.114-65.03,65.03-65.03h25.802C175.14,126.624,193.895,116.543,204.979,99.781z"/>
<g style="opacity:0.1;">
	<circle cx="362.682" cy="221.276" r="6.657"/>
	<circle cx="315.367" cy="231.438" r="6.657"/>
	<circle cx="342.44" cy="254.14" r="6.657"/>
</g>
<g>
	<ellipse style="fill:#FFA8CB;" cx="352.561" cy="130.246" rx="16.778" ry="8.607"/>
	<ellipse style="fill:#FFA8CB;" cx="239.928" cy="130.246" rx="16.778" ry="8.607"/>
</g>
<path style="opacity:0.05;enable-background:new    ;" d="M339.992,61.35c43.076,9.772,75.235,48.291,75.235,94.323v44.469
	c0,47.942-38.865,86.807-86.807,86.807h-52.674C352.457,242.314,365.461,119.621,339.992,61.35z"/>
<path style="fill:#498A68;" d="M318.085,347.715c-4.623,0-9.148-2.276-11.834-6.453c-4.201-6.529-2.313-15.227,4.215-19.426
	c0.725-0.467,1.501-0.953,2.32-1.466c5.649-3.538,12.678-7.943,17.422-15.803c4.009-6.647,12.648-8.786,19.297-4.774
	c6.647,4.01,8.784,12.65,4.774,19.297c-8.207,13.602-19.7,20.802-26.568,25.104c-0.717,0.449-1.398,0.875-2.032,1.284
	C323.325,346.991,320.688,347.715,318.085,347.715z"/>
<path style="fill:#CD5B5B;" d="M48.301,54.189c-10.857-6.974-25.57-5.236-34.449,4.914c-9.513,10.874-8.239,27.489,2.29,37.383
	l28.829,27.09c5.27,4.952,13.557,4.695,18.508-0.576l27.09-28.829c9.894-10.529,10.133-27.19-0.037-37.452
	c-9.492-9.577-24.285-10.398-34.688-2.763C53.62,55.587,50.622,55.68,48.301,54.189z"/>
<path d="M510.859,348.975c-2.973-8.136-10.742-12.828-19.349-11.682c-34.554,4.615-67.744-1.765-89.724-17.077
	c-0.464-16.547-5.294-32.535-14.117-46.758c21.475-17.421,35.058-44.009,35.058-73.317v-44.469
	c0-57.469-46.754-104.223-104.223-104.223h-37.572c-33.178,0-63.91,16.522-82.209,44.195c-9.723,14.703-26.05,23.48-43.676,23.48
	h-25.802c-39.993,0-72.531,32.537-72.531,72.53v30.266c0,39.993,32.537,72.53,72.531,72.53h64.578
	c-2.922,9.075-4.418,18.487-4.447,28.11c-5.364,4.428-15.287,13.454-22.319,26.611c-5.602,10.483-1.63,23.571,8.854,29.173
	c3.117,1.665,6.627,2.546,10.147,2.546c4.277,0,8.351-1.265,11.794-3.513c2.156,4.544,4.856,8.832,8.232,12.783
	c5.039,5.895,11.351,10.785,19.062,14.721c-0.277,8.381-0.313,16.45-0.286,22.132c0.02,4.13,3.373,7.465,7.5,7.465h0.036
	c4.143-0.02,7.485-3.394,7.466-7.537c-0.02-4.309-0.004-10.021,0.13-16.175c8.209,2.481,17.552,4.246,28.118,5.323
	c-0.183,9.319-0.176,19.168,0.222,24.334c0.597,7.766-5.236,14.569-13.004,15.166c-4.108,0.319-8.042-1.132-10.964-3.991
	c-2.961-2.897-7.711-2.844-10.606,0.116c-2.897,2.96-2.846,7.71,0.115,10.607c5.48,5.361,12.705,8.313,20.349,8.313
	c0.001,0,0.003,0,0.003,0c0.752,0,1.512-0.029,2.255-0.086c16.014-1.23,28.039-15.26,26.809-31.274
	c-0.31-4.024-0.375-12.566-0.196-22.149c4.02,0.159,8.188,0.24,12.511,0.24c2.627,0,5.193-0.032,7.708-0.091
	c-0.136,13.503,0.192,24.736,0.325,26.468c1.16,15.081,13.907,26.893,29.017,26.892c0.749,0,1.509-0.029,2.257-0.087
	c7.758-0.597,14.818-4.179,19.881-10.085c5.064-5.908,7.522-13.433,6.925-21.189c-0.431-5.609-0.383-19.406,0.079-32.368
	c0.903-0.395,1.786-0.804,2.655-1.223c42.295-1.933,95.929-7.855,139.221-35.495C510.918,365.56,513.806,357.036,510.859,348.975z
	 M191.851,362.421c-1.143,2.138-3.362,3.467-5.794,3.467c-1.078,0-2.113-0.261-3.076-0.776c-3.189-1.704-4.397-5.684-2.693-8.872
	c2.834-5.304,6.302-9.829,9.639-13.522c0.438,6.337,1.21,12.586,2.547,18.603C192.264,361.689,192.046,362.056,191.851,362.421z
	 M343.402,450.697c-2.455,2.864-5.879,4.602-9.643,4.892c-7.777,0.601-14.574-5.319-15.165-12.998
	c-0.086-1.178-0.429-12.404-0.271-26.073c10.565-0.843,19.973-2.328,28.308-4.477c-0.288,10.972-0.316,22.596,0.129,28.38
	C347.05,444.184,345.857,447.833,343.402,450.697z M359.661,391.339c-0.375,0.156-0.735,0.336-1.076,0.548
	c-1.885,0.94-3.883,1.814-5.994,2.624c-0.48,0.126-0.942,0.3-1.381,0.515c-10.591,3.835-23.945,6.127-40.401,6.966
	c-0.211,0.004-0.421,0.013-0.628,0.034c-4.615,0.224-9.47,0.335-14.576,0.335c-6.748,0-13.052-0.198-18.946-0.59
	c-0.211-0.025-0.424-0.046-0.64-0.052c-0.031-0.001-0.061,0.002-0.092,0.002c-16.269-1.134-29.32-3.799-39.512-8.097
	c-0.413-0.225-0.848-0.412-1.304-0.557c-7.396-3.299-13.22-7.503-17.622-12.654c-8.097-9.473-13.115-22.408-13.115-57.568
	c0-9.782,1.805-19.312,5.365-28.396h95.363c4.143,0,7.501-3.358,7.501-7.501s-3.357-7.501-7.501-7.501H129.244
	c-31.722,0-57.529-25.807-57.529-57.528v-30.266c0-31.721,25.807-57.528,57.529-57.528h25.802c22.676,0,43.681-11.292,56.19-30.208
	c15.515-23.462,41.568-37.467,69.696-37.467h37.572c49.197,0,89.221,40.025,89.221,89.221v44.469
	c0,39.736-29.664,73.546-69.003,78.643c-4.107,0.533-7.007,4.294-6.475,8.403c0.233,1.799,1.085,3.365,2.314,4.514
	c-4.487,1.702-8.26,4.818-10.776,8.989c-3.82,6.332-9.75,10.045-14.982,13.323c-0.846,0.53-1.648,1.033-2.396,1.515
	c-3.695,2.377-6.541,5.772-8.229,9.817c-1.595,3.823,0.211,8.215,4.034,9.811c3.819,1.594,8.216-0.211,9.811-4.034
	c0.511-1.224,1.375-2.253,2.5-2.977c0.7-0.451,1.451-0.921,2.242-1.417c5.99-3.751,14.193-8.89,19.862-18.286
	c0.904-1.498,2.338-2.556,4.037-2.976c1.702-0.423,3.461-0.155,4.962,0.751c1.499,0.904,2.556,2.338,2.977,4.038
	c0.42,1.7,0.153,3.461-0.751,4.962c-7.281,12.068-17.418,18.419-24.128,22.623l-0.148,0.092c-0.692,0.434-1.351,0.847-1.96,1.239
	c-0.566,0.365-1.18,0.639-1.819,0.815c-3.994,1.097-6.344,5.226-5.247,9.22c0.915,3.329,3.935,5.516,7.229,5.516
	c0.657,0,1.326-0.087,1.99-0.27c2.108-0.579,4.115-1.475,5.97-2.668c0.565-0.364,1.168-0.742,1.802-1.139l0.149-0.093
	c6.946-4.352,19.876-12.451,29.006-27.584c2.974-4.931,3.851-10.724,2.468-16.314s-4.86-10.306-9.788-13.28
	c-0.982-0.592-2.005-1.078-3.047-1.502c8.891-2.117,17.262-5.492,24.944-9.911c7.577,12.454,11.559,26.457,11.559,40.889
	c0,26.067-2.193,44.789-13.114,57.568C370.053,384.706,365.392,388.338,359.661,391.339z M495.6,357.541
	c-33.257,21.233-73.87,28.74-109.766,31.756c11.681-14.243,14.9-32.698,15.73-51.582c24.551,13.625,57.809,19.004,91.932,14.449
	c2.109-0.282,2.962,1.108,3.274,1.962C497.13,355.113,497.22,356.506,495.6,357.541z M96.036,99.307
	c12.685-13.5,12.606-34.973-0.176-47.87c-11.69-11.796-30.503-13.415-43.989-3.864c-14.057-8.692-32.729-5.909-43.664,6.591
	c-11.955,13.665-10.701,35.102,2.798,47.788l28.829,27.09c3.969,3.729,9.038,5.577,14.098,5.577
	c5.489-0.001,10.968-2.176,15.015-6.483L96.036,99.307z M54.111,119.624c-1.521,0.054-2.916-0.492-4.004-1.514l-28.829-27.09
	c-7.681-7.219-8.48-19.32-1.78-26.978c3.743-4.279,9.1-6.531,14.495-6.531c3.55,0,7.119,0.975,10.255,2.989
	c4.897,3.146,11.34,2.946,16.036-0.499c7.57-5.557,18.287-4.699,24.922,1.997c7.163,7.227,7.117,19.354-0.102,27.036l-27.09,28.83
	C56.991,118.952,55.604,119.578,54.111,119.624z M134.29,223.262l7.422,2.124c3.98,1.137,8.136-1.164,9.275-5.148
	c1.14-3.982-1.165-8.136-5.148-9.275l-7.422-2.124c-7.126-2.038-14.443,0.281-19.092,6.057c-4.648,5.776-5.352,13.419-1.834,19.945
	c0.371,0.688,0.371,1.509,0,2.198c-3.517,6.527-2.813,14.169,1.834,19.945c3.533,4.391,8.607,6.785,13.97,6.785
	c1.692,0,3.413-0.238,5.123-0.728l7.422-2.124c3.982-1.14,6.288-5.293,5.148-9.275c-1.141-3.982-5.294-6.287-9.275-5.147
	l-7.422,2.124c-1.725,0.49-2.793-0.439-3.277-1.04c-0.482-0.6-1.166-1.843-0.314-3.423c2.771-5.145,2.771-11.287,0-16.431
	c-0.852-1.58-0.168-2.823,0.314-3.423C131.496,223.701,132.566,222.77,134.29,223.262z M163.325,153.936
	c-3.676,0-6.657,2.98-6.657,6.657c0,3.676,2.98,6.657,6.657,6.657c3.676,0,6.657-2.98,6.657-6.657S167.001,153.936,163.325,153.936z
	 M120.904,167.248c3.676,0,6.657-2.98,6.657-6.657c0-3.676-2.98-6.657-6.657-6.657c-3.676,0-6.657,2.98-6.657,6.657
	C114.247,164.269,117.228,167.248,120.904,167.248z M261.213,97.319c-4.143,0-7.501,3.358-7.501,7.501v8.36
	c0,4.142,3.357,7.501,7.501,7.501s7.501-3.358,7.501-7.501v-8.36C268.713,100.677,265.356,97.319,261.213,97.319z M323.065,120.756
	c4.143,0,7.501-3.358,7.501-7.501c0-1.641,1.336-2.977,2.978-2.977s2.977,1.335,2.977,2.977c0,4.142,3.357,7.501,7.501,7.501
	s7.501-3.358,7.501-7.501c0-9.913-8.065-17.979-17.979-17.979s-17.98,8.065-17.98,17.979
	C315.564,117.397,318.921,120.756,323.065,120.756z"/>
<g>
</g>
<g>
</g>
<g>
</g>
<g>
</g>
<g>
</g>
<g>
</g>
<g>
</g>
<g>
</g>
<g>
</g>
<g>
</g>
<g>
</g>
<g>
</g>
<g>
</g>
<g>
</g>
<g>
</g>
</svg>
