<?xml version="1.0" encoding="iso-8859-1"?>
<!-- Generator: Adobe Illustrator 19.0.0, SVG Export Plug-In . SVG Version: 6.00 Build 0)  -->
<svg version="1.1" id="Capa_1" xmlns="http://www.w3.org/2000/svg" xmlns:xlink="http://www.w3.org/1999/xlink" x="0px" y="0px"
	 viewBox="0 0 512 512" style="enable-background:new 0 0 512 512;" xml:space="preserve">
<rect x="10" y="216" style="fill:#F25A78;" width="492" height="160"/>
<g>
	<path style="fill:#CCEEFF;" d="M10,376v60c0,11.05,8.95,20,20,20h452c11.05,0,20-8.95,20-20v-60H10z"/>
	<path style="fill:#CCEEFF;" d="M482,136H366l-34.47-68.94C328.14,60.28,321.21,56,313.64,56H198.36c-7.57,0-14.5,4.28-17.89,11.06
		L146,136h-36v-20c0-11.05-8.95-20-20-20H70c-11.05,0-20,8.95-20,20v20H30c-11.05,0-20,8.95-20,20v60h492v-60
		C502,144.95,493.05,136,482,136z"/>
</g>
<path style="fill:#57555C;" d="M376,296c0,66.135-53.618,120-120,120c-66.394,0-120-53.878-120-120c0-66.135,53.618-120,120-120
	C322.394,176,376,229.878,376,296z"/>
<path style="fill:#FFFFFF;" d="M256,216c44.11,0,80,35.89,80,80s-35.89,80-80,80s-80-35.89-80-80S211.89,216,256,216z"/>
<path d="M402,186c5.52,0,10-4.48,10-10s-4.48-10-10-10s-10,4.48-10,10S396.48,186,402,186z"/>
<path d="M482,126H372.18l-31.706-63.413C335.357,52.356,325.075,46,313.64,46H198.36c-11.437,0-21.719,6.356-26.834,16.588
	L139.82,126H120v-10c0-16.542-13.458-30-30-30H70c-16.542,0-30,13.458-30,30v10H30c-16.542,0-30,13.458-30,30
	c0,27.175,0,269.429,0,280c0,16.542,13.458,30,30,30h452c16.542,0,30-13.458,30-30c0-27.175,0-269.429,0-280
	C512,139.458,498.542,126,482,126z M20,225.9h126.451C133.161,246.661,126,270.992,126,296c0,25.01,7.162,49.243,20.45,70H20V225.9z
	 M146,296c0-61.205,49.79-110,110-110c60.133,0,110,48.719,110,110c0,61.212-49.797,110-110,110C195.743,406,146,357.158,146,296z
	 M386,296c0-25.009-7.161-49.239-20.451-70H492v140H365.549C378.839,345.239,386,321.009,386,296z M189.415,71.532
	C191.121,68.12,194.548,66,198.36,66h115.28c3.812,0,7.24,2.12,8.946,5.532L349.82,126H162.18L189.415,71.532z M60,116
	c0-5.514,4.486-10,10-10h20c5.514,0,10,4.486,10,10v10H60V116z M30,146c9.081,0,437.942,0,452,0c5.514,0,10,4.486,10,10v50H349.774
	c-24.434-25.472-58.348-40-93.774-40c-35.43,0-69.347,14.532-93.775,40H20v-50C20,150.486,24.486,146,30,146z M482,446H30
	c-5.514,0-10-4.486-10-10v-50h142.226c24.435,25.472,58.349,40,93.774,40c35.431,0,69.348-14.532,93.775-40H492v50
	C492,441.514,487.514,446,482,446z"/>
<path d="M286,86h-60c-5.523,0-10,4.477-10,10s4.477,10,10,10h60c5.522,0,10-4.477,10-10S291.522,86,286,86z"/>
<path d="M256,386c49.626,0,90-40.374,90-90s-40.374-90-90-90s-90,40.374-90,90S206.374,386,256,386z M256,226
	c38.598,0,70,31.402,70,70s-31.402,70-70,70s-70-31.402-70-70S217.402,226,256,226z"/>
<path d="M216,306c5.523,0,10-4.477,10-10c0-16.542,13.458-30,30-30c5.522,0,10-4.477,10-10s-4.478-10-10-10c-27.57,0-50,22.43-50,50
	C206,301.523,210.477,306,216,306z"/>
<path d="M442,186h20c5.522,0,10-4.477,10-10s-4.478-10-10-10h-20c-5.522,0-10,4.477-10,10S436.478,186,442,186z"/>
<g>
</g>
<g>
</g>
<g>
</g>
<g>
</g>
<g>
</g>
<g>
</g>
<g>
</g>
<g>
</g>
<g>
</g>
<g>
</g>
<g>
</g>
<g>
</g>
<g>
</g>
<g>
</g>
<g>
</g>
</svg>
