<?xml version="1.0" encoding="iso-8859-1"?>
<!-- Generator: Adobe Illustrator 19.0.0, SVG Export Plug-In . SVG Version: 6.00 Build 0)  -->
<svg version="1.1" id="Capa_1" xmlns="http://www.w3.org/2000/svg" xmlns:xlink="http://www.w3.org/1999/xlink" x="0px" y="0px"
	 viewBox="0 0 512.001 512.001" style="enable-background:new 0 0 512.001 512.001;" xml:space="preserve">
<path style="fill:#498A68;" d="M296.962,380.471c-2.571,0-5.167-0.758-7.436-2.336c-4.176-2.903-14.446-5.754-19.382-7.124
	c-2.621-0.727-4.352-1.208-5.756-1.756c-6.711-2.622-10.025-10.188-7.403-16.898c2.609-6.675,10.108-9.986,16.789-7.445
	c0.514,0.173,2.081,0.608,3.346,0.96c7.287,2.022,19.482,5.407,27.301,10.844c5.915,4.113,7.376,12.243,3.262,18.157
	C305.15,378.518,301.09,380.471,296.962,380.471z"/>
<path style="fill:#FAE17C;" d="M484.036,128.773l-97.53-8.533c-8.294-0.726-14.429-8.038-13.703-16.331l4.076-46.589
	c0.726-8.294,8.038-14.429,16.331-13.703l97.529,8.533c8.294,0.726,14.429,8.038,13.703,16.331l-4.076,46.589
	C499.641,123.363,492.329,129.498,484.036,128.773z"/>
<rect x="405.784" y="47.754" transform="matrix(-0.9962 -0.0872 0.0872 -0.9962 868.0578 210.3468)" style="fill:#A3E3FF;" width="65.678" height="76.919"/>
<path style="fill:#5CB38E;" d="M469.222,113.218c-7.233-4.534-13.456-10.704-18.049-18.207l0,0
	c-10.136-16.559-25.452-28.913-43.183-35.463l-5.433,62.096l65.427,5.724L469.222,113.218z"/>
<circle style="fill:#FFFFFF;" cx="390.506" cy="80.436" r="7.868"/>
<path style="fill:#5CB38E;" d="M183.593,411.301c-57.407,0-123.47,0-171.834-30.878c-8.276-5.284-3.49-18.045,6.243-16.745
	c38.299,5.113,70.471-4.636,88.816-20.428L183.593,411.301z"/>
<path style="opacity:0.1;enable-background:new    ;" d="M85.163,356.276c0.64,18.333,3.454,36.633,14.754,51.849
	c27.985,3.175,56.78,3.176,83.675,3.176l-76.775-68.052C100.938,348.31,93.631,352.746,85.163,356.276z"/>
<g>
	<path style="fill:#498A68;" d="M157.895,468.441c-0.518,0-1.037-0.02-1.561-0.06c-11.052-0.85-19.321-10.499-18.471-21.549
		c0.715-9.298-0.048-40.528-1.381-47.617c-3.251-9.924,1.688-20.813,11.508-24.814c10.265-4.182,21.977,0.749,26.158,11.015
		c1.131,2.775,3.022,7.418,3.834,32.996c0.326,10.315,0.436,24.572-0.097,31.5C177.073,460.439,168.279,468.441,157.895,468.441z
		 M136.966,400.535c0.003,0.008,0.006,0.016,0.01,0.024C136.971,400.551,136.968,400.543,136.966,400.535z"/>
	<path style="fill:#498A68;" d="M226.531,468.441c-0.517,0-1.037-0.02-1.561-0.06c-11.052-0.85-19.321-10.499-18.471-21.549
		c0.715-9.298-0.048-40.527-1.381-47.617c-3.251-9.924,1.688-20.813,11.508-24.814c10.266-4.182,21.976,0.749,26.158,11.015
		c1.131,2.775,3.022,7.418,3.834,32.996c0.326,10.315,0.436,24.572-0.097,31.5C245.71,460.439,236.915,468.441,226.531,468.441z
		 M205.603,400.535c0.003,0.008,0.006,0.016,0.01,0.024C205.609,400.551,205.606,400.543,205.603,400.535z"/>
</g>
<path style="opacity:0.1;enable-background:new    ;" d="M246.88,432.392c-0.031-4.805-0.128-9.728-0.262-13.981
	c-0.812-25.578-2.703-30.221-3.834-32.996c-4.182-10.266-15.892-15.195-26.158-11.015c-9.819,4.001-14.758,14.89-11.508,24.814
	c1.084,5.764,1.791,27.484,1.633,40.401C222.398,438.669,235.691,436.29,246.88,432.392z"/>
<path style="opacity:0.1;enable-background:new    ;" d="M174.147,385.415c-4.181-10.266-15.892-15.195-26.158-11.015
	c-9.819,4.001-14.758,14.89-11.508,24.814c0.934,4.966,1.587,21.768,1.649,34.589c11.309,3.387,24.595,5.379,40.1,6.04
	c0.074-6.823-0.045-14.913-0.251-21.432C177.169,392.833,175.278,388.19,174.147,385.415z"/>
<path style="fill:#5CB38E;" d="M276.723,344.526c0,44.182-6.002,76.152-86.406,76.152s-86.406-31.97-86.406-76.152
	s38.684-80,86.406-80C238.037,264.526,276.723,300.344,276.723,344.526z"/>
<path style="fill:#9BDFC1;" d="M276.723,344.526c0-0.352-0.009-0.702-0.014-1.053c-17.997-4.619-53.694-5.962-78.535,20.438
	c-18.102,19.238-20.721,39.997-18.78,56.555c3.48,0.141,7.118,0.214,10.924,0.214C270.721,420.679,276.723,388.71,276.723,344.526z"
	/>
<path style="opacity:0.05;enable-background:new    ;" d="M173.914,265.973c-39.874,7.096-70.002,39.564-70.002,78.554
	c0,40.91,5.156,71.346,69.749,75.63C137.797,383.755,144.734,308.593,173.914,265.973z"/>
<path style="fill:#5CB38E;" d="M264.51,147.171L264.51,147.171c-16.436-21.104-42.365-32.555-69.034-30.485l-32.784,2.544
	c-46.608,3.616-81.461,44.331-77.845,90.939l3.01,38.8c3.245,41.83,39.786,73.11,81.618,69.865l173.785-13.482
	c31.337-2.431,54.769-29.805,52.338-61.142l-2.049-26.407c-2.431-31.337-29.805-54.769-61.142-52.338l-22.513,1.747
	C292.361,168.572,275.316,161.045,264.51,147.171z"/>
<g style="opacity:0.1;">
	<circle cx="135.126" cy="263.858" r="5.826"/>
	<circle cx="177.105" cy="269.508" r="5.826"/>
	<circle cx="155.016" cy="291.157" r="5.826"/>
</g>
<g>
	
		<ellipse transform="matrix(-0.0773 -0.997 0.997 -0.0773 -20.1049 338.8109)" style="fill:#FFA8CB;" cx="146.727" cy="178.709" rx="7.533" ry="14.683"/>
	
		<ellipse transform="matrix(0.0773 0.997 -0.997 0.0773 396.6443 -86.4567)" style="fill:#FFA8CB;" cx="245.032" cy="171.065" rx="7.533" ry="14.682"/>
</g>
<path style="opacity:0.05;enable-background:new    ;" d="M144.106,122.777c-36.924,11.443-62.376,47.227-59.259,87.392l3.01,38.8
	c3.245,41.83,39.786,73.111,81.618,69.865l45.96-3.566C145.479,281.517,125.829,175.344,144.106,122.777z"/>
<path style="fill:#498A68;" d="M207.356,374.934c-1.769,0-3.565-0.362-5.286-1.126c-8.047-3.572-16.573-3.633-19.782-3.656
	l-0.395-0.003c-7.204-0.064-12.992-5.957-12.927-13.16c0.064-7.165,5.893-12.928,13.042-12.928c0.039,0,0.078,0,0.118,0l0.349,0.003
	c4.247,0.03,17.168,0.124,30.181,5.9c6.586,2.923,9.554,10.631,6.631,17.215C217.127,372.042,212.355,374.934,207.356,374.934z"/>
<path d="M491.392,44.676l-16.051-1.404l-81.479-7.128c-12.407-1.086-23.371,8.122-24.456,20.521l-4.076,46.589
	c-0.526,6.007,1.319,11.86,5.195,16.478c3.876,4.62,9.319,7.453,15.326,7.979l36.42,3.187l-30.001,58.526
	c-3.561-6.013-8.113-11.472-13.577-16.148c-13.068-11.189-29.713-16.616-46.867-15.286l-22.513,1.747
	c-15.072,1.164-29.603-5.251-38.888-17.172c-18.032-23.156-46.263-35.627-75.531-33.354l-32.783,2.544
	c-50.657,3.93-88.674,48.34-84.743,98.997l3.011,38.8c1.68,21.651,11.468,40.983,26.473,54.87
	c-6.389,11.531-9.946,24.264-10.39,37.311c-19.048,13.072-47.663,18.491-77.469,14.512c-7.967-1.063-15.178,3.287-17.934,10.829
	c-2.733,7.477-0.056,15.381,6.663,19.672c38.054,24.295,85.12,29.507,122.244,31.207c0.113,0.053,0.228,0.105,0.342,0.158
	c0.398,11.195,0.445,23.334,0.076,28.149c-1.166,15.156,10.217,28.436,25.37,29.602c0.707,0.055,1.427,0.082,2.139,0.082
	c14.303,0,26.368-11.182,27.467-25.455c0.409-5.308,0.452-14.215,0.339-22.348c1.516,0.025,3.05,0.04,4.618,0.04
	c3.064,0,6.018-0.052,8.887-0.145c0.134,7.93,0.074,14.898-0.181,18.223c-1.166,15.156,10.217,28.436,25.37,29.602
	c0.707,0.055,1.427,0.082,2.139,0.082c8.458,0,16.33-3.813,21.598-10.46c2.573-3.247,2.026-7.963-1.22-10.536
	c-3.246-2.573-7.963-2.027-10.536,1.22c-2.609,3.293-6.559,5.074-10.828,4.738c-6.91-0.531-12.101-6.586-11.569-13.497
	c0.333-4.336,0.351-12.482,0.209-20.356c9.585-0.982,17.879-2.584,25.036-4.747c0.079,3.245,0.134,6.63,0.157,9.83
	c0.029,4.125,3.382,7.447,7.499,7.447h0.054c4.143-0.029,7.477-3.411,7.447-7.553c-0.032-4.547-0.127-9.468-0.266-13.855
	c-0.021-0.661-0.043-1.307-0.065-1.941c15.018-8.156,22.661-20.021,26.486-34.128c2.962,1.118,4.221,1.847,4.711,2.187
	c3.46,2.407,7.513,3.679,11.719,3.679c2.149,0,4.254-0.339,6.25-0.977c0.016,0,0.032,0.003,0.048,0.003
	c2.414,0,4.748-1.174,6.173-3.244c1.679-1.28,3.173-2.822,4.408-4.599c2.285-3.285,3.524-7.078,3.658-10.985l28.481-55.561
	c16.306-1.802,31.089-9.59,41.809-22.113c11.189-13.069,16.616-29.714,15.285-46.867l-2.049-26.407
	c-0.244-3.15-0.715-6.247-1.396-9.275l38.773-75.64l44.978,3.935c0.666,0.058,1.327,0.087,1.983,0.087
	c11.566,0,21.446-8.875,22.473-20.608l4.076-46.589C513,56.733,503.794,45.762,491.392,44.676z M15.795,374.102
	c-0.351-0.224-1.082-0.691-0.647-1.88c0.476-1.298,1.484-1.163,1.863-1.111c29.468,3.934,58.215-0.551,79.742-12.051
	c0.882,16.206,3.822,30.88,12.514,42.498C78.507,398.809,44.073,392.156,15.795,374.102z M170.406,449.335
	c-0.526,6.833-6.507,12.112-13.497,11.569c-6.91-0.531-12.101-6.586-11.569-13.497c0.374-4.871,0.359-14.652,0.13-23.976
	c7.284,1.882,15.636,3.24,25.218,4.009C170.817,435.761,170.775,444.547,170.406,449.335z M298.264,372.815
	c-0.422,0.101-0.857,0.156-1.301,0.156c-1.129,0-2.22-0.344-3.155-0.994c-2.291-1.593-5.72-3.165-10.568-4.835
	c0.399-3.715,0.646-7.532,0.793-11.428c5.669,1.815,11.819,4.177,16.106,7.159c0.893,0.62,1.563,1.471,1.963,2.454L298.264,372.815z
	 M309.399,351.094c-0.233-0.177-0.453-0.367-0.695-0.535c-7.167-4.984-17.006-8.288-24.605-10.507
	c-0.409-7.613-1.871-15.052-4.358-22.249l48.659-3.775L309.399,351.094z M376.394,280.744c-8.583,10.027-20.556,16.11-33.715,17.131
	l-74.291,5.764c-0.021,0.001-0.042,0.003-0.064,0.005l-82.903,6.432c-4.13,0.32-7.218,3.928-6.898,8.058
	c0.32,4.129,3.925,7.213,8.058,6.897l77.571-6.018c3.353,8.151,5.07,16.708,5.07,25.515c0,9.683-0.277,18.5-1.556,26.352
	c-0.038,0.184-0.065,0.367-0.09,0.551c-2.517,14.81-8.724,26.122-23.617,33.212c-0.515,0.174-1.007,0.397-1.465,0.672
	c-8.803,3.882-20.472,6.388-35.942,7.381c-0.089,0-0.178-0.008-0.268-0.005c-0.268,0.008-0.532,0.032-0.792,0.067
	c-4.708,0.278-9.753,0.423-15.176,0.423c-4.075,0-7.928-0.084-11.595-0.242c-0.22-0.02-0.442-0.028-0.667-0.028
	c-15.657-0.717-27.665-2.87-36.856-6.341c-0.556-0.305-1.15-0.545-1.776-0.701c-1.28-0.529-2.498-1.087-3.664-1.67
	c-0.382-0.242-0.787-0.45-1.212-0.621c-20.954-11.18-23.137-31.667-23.137-59.05c0-10.72,2.578-21.251,7.503-30.86
	c9.323,5.889,19.928,10.008,31.393,11.848c0.402,0.064,0.803,0.096,1.197,0.096c3.619,0,6.805-2.625,7.396-6.313
	c0.656-4.09-2.127-7.938-6.217-8.594c-11.501-1.846-21.951-6.479-30.703-13.162c-0.367-0.376-0.776-0.721-1.232-1.023
	c-0.085-0.056-0.174-0.102-0.261-0.155c-14.239-11.517-23.651-28.611-25.154-47.975l-3.011-38.8
	c-3.291-42.411,28.537-79.592,70.948-82.883l32.783-2.543c24.232-1.882,47.606,8.444,62.538,27.616
	c12.388,15.905,31.785,24.473,51.882,22.91l22.513-1.747c13.144-1.016,25.927,3.143,35.954,11.727
	c10.026,8.583,16.109,20.556,17.13,33.715l2.049,26.407C389.141,257.949,384.977,270.717,376.394,280.744z M395.74,113.519
	l-8.581-0.751c-2.016-0.176-3.843-1.127-5.143-2.677c-1.301-1.55-1.92-3.514-1.743-5.53l4.076-46.589
	c0.364-4.161,4.02-7.25,8.207-6.886l8.58,0.75L395.74,113.519z M461.167,119.243l-26.544-2.322
	c-0.019-0.001-0.038-0.004-0.056-0.005l-23.884-2.09l5.397-61.683l50.484,4.417L461.167,119.243z M496.971,67.825l-4.076,46.589
	c-0.364,4.162-4.031,7.252-8.207,6.887l-8.58-0.751l5.397-61.683l8.579,0.75C494.246,59.982,497.336,63.664,496.971,67.825z
	 M353.31,117.778l-13.809,6.024c-3.797,1.656-5.531,6.077-3.875,9.874c1.23,2.82,3.985,4.503,6.878,4.503
	c1.001,0,2.018-0.202,2.995-0.627l13.809-6.024c3.797-1.656,5.531-6.077,3.875-9.874C361.527,117.857,357.107,116.12,353.31,117.778
	z M335.499,54.432l13.585,6.845c1.083,0.545,2.234,0.804,3.369,0.804c2.742,0,5.386-1.51,6.704-4.127
	c1.863-3.699,0.376-8.208-3.323-10.072l-13.585-6.845c-3.7-1.863-8.209-0.376-10.073,3.323
	C330.312,48.059,331.8,52.569,335.499,54.432z M341.534,188.73c-3.208,0.249-5.607,3.051-5.358,6.259s3.051,5.606,6.259,5.358
	c3.208-0.249,5.606-3.051,5.358-6.259C347.543,190.88,344.741,188.481,341.534,188.73z M331.745,98.945
	c0.336,0,0.676-0.022,1.017-0.069l15.784-2.139c4.105-0.556,6.981-4.334,6.425-8.439s-4.35-6.979-8.438-6.425l-15.784,2.139
	c-4.104,0.556-6.981,4.335-6.425,8.439C324.833,96.215,328.051,98.945,331.745,98.945z M310.779,196.959
	c-0.249-3.208-3.051-5.606-6.259-5.357c-3.208,0.249-5.607,3.051-5.358,6.259c0.249,3.208,3.051,5.606,6.259,5.357
	C308.629,202.969,311.027,200.167,310.779,196.959z M344.434,252.161c-3.326-2.472-8.023-1.781-10.494,1.543
	c-1.369,1.841-3.461,2.999-5.738,3.175c-2.279,0.17-4.523-0.645-6.16-2.252c-2.953-2.901-7.701-2.86-10.607,0.095
	c-2.902,2.955-2.86,7.704,0.095,10.606c4.307,4.23,10.079,6.575,16.06,6.575c0.589,0,1.18-0.023,1.771-0.069
	c6.603-0.512,12.657-3.858,16.614-9.179C348.449,259.331,347.758,254.633,344.434,252.161z M232.201,149.754
	c-0.321-4.129-3.903-7.216-8.059-6.897c-4.129,0.321-7.217,3.928-6.896,8.058l0.566,7.295c0.306,3.932,3.591,6.92,7.47,6.92
	c0.194,0,0.391-0.008,0.589-0.023c4.129-0.321,7.217-3.928,6.896-8.058L232.201,149.754z M171.631,161.791l-0.566-7.295
	c-0.321-4.129-3.904-7.221-8.059-6.897c-4.129,0.321-7.217,3.928-6.896,8.058l0.566,7.295c0.306,3.932,3.591,6.92,7.47,6.92
	c0.194,0,0.391-0.008,0.589-0.023C168.863,169.528,171.951,165.921,171.631,161.791z M172.4,345.516
	c0.7,4.082,4.575,6.819,8.66,6.124c0.308-0.053,0.625-0.08,0.998-0.08h0.005l0.358,0.003c3.859,0.027,15.604,0.111,27.191,5.254
	c1.354,0.601,2.393,1.693,2.925,3.075c0.532,1.382,0.494,2.889-0.107,4.245c-0.889,2.003-2.881,3.297-5.074,3.297
	c-0.771,0-1.525-0.162-2.244-0.48c-9.477-4.206-19.135-4.275-22.769-4.301l-0.384-0.002c-0.752-0.007-1.476-0.159-2.152-0.452
	c-3.801-1.648-8.216,0.099-9.864,3.899c-1.646,3.8,0.099,8.217,3.899,9.864c2.528,1.096,5.214,1.664,7.994,1.689l0.397,0.003
	c2.782,0.02,10.173,0.073,16.792,3.011c2.646,1.175,5.449,1.771,8.33,1.771c8.12,0,15.492-4.794,18.783-12.212
	c2.228-5.016,2.367-10.599,0.396-15.72c-1.973-5.121-5.821-9.168-10.837-11.395c-14.442-6.411-28.538-6.511-33.161-6.544
	l-0.53-0.004c-1.168,0-2.34,0.1-3.484,0.296C174.44,337.557,171.699,341.434,172.4,345.516z"/>
<g>
</g>
<g>
</g>
<g>
</g>
<g>
</g>
<g>
</g>
<g>
</g>
<g>
</g>
<g>
</g>
<g>
</g>
<g>
</g>
<g>
</g>
<g>
</g>
<g>
</g>
<g>
</g>
<g>
</g>
</svg>
